<?xml version="1.0" encoding="UTF-8" standalone="no"?>
<!DOCTYPE svg PUBLIC "-//W3C//DTD SVG 1.1//EN"
 "http://www.w3.org/Graphics/SVG/1.1/DTD/svg11.dtd">
<!-- Generated by graphviz version 2.43.0 (0)
 -->
<!-- Title: G Pages: 1 -->
<svg width="1242pt" height="552pt"
 viewBox="0.00 0.00 1241.56 552.00" xmlns="http://www.w3.org/2000/svg" xmlns:xlink="http://www.w3.org/1999/xlink">
<g id="graph0" class="graph" transform="scale(1 1) rotate(0) translate(4 548)">
<title>G</title>
<polygon fill="white" stroke="transparent" points="-4,4 -4,-548 1237.56,-548 1237.56,4 -4,4"/>
<!-- inicial -->
<g id="node1" class="node">
<title>inicial</title>
<polygon fill="none" stroke="blue" points="351.01,-384 261.22,-384 238.12,-348 327.91,-348 351.01,-384"/>
<text text-anchor="middle" x="294.56" y="-362.3" font-family="Times,serif" font-size="14.00">inicial</text>
</g>
<!-- abierta_manual -->
<g id="node8" class="node">
<title>abierta_manual</title>
<polygon fill="none" stroke="yellow" points="278.06,-297 151.06,-297 151.06,-261 278.06,-261 278.06,-297"/>
<text text-anchor="middle" x="214.56" y="-275.3" font-family="Times,serif" font-size="14.00">abierta_manual</text>
</g>
<!-- inicial&#45;&gt;abierta_manual -->
<g id="edge5" class="edge">
<title>inicial&#45;&gt;abierta_manual</title>
<path fill="none" stroke="black" d="M278.38,-347.8C266.66,-335.36 250.67,-318.36 237.63,-304.5"/>
<polygon fill="black" stroke="black" points="240.13,-302.06 230.73,-297.18 235.03,-306.86 240.13,-302.06"/>
<text text-anchor="middle" x="270.56" y="-318.8" font-family="Times,serif" font-size="14.00">fca</text>
</g>
<!-- cerrando_automatico -->
<g id="node12" class="node">
<title>cerrando_automatico</title>
<polygon fill="none" stroke="red" points="637.06,-297 470.06,-297 470.06,-261 637.06,-261 637.06,-297"/>
<text text-anchor="middle" x="553.56" y="-275.3" font-family="Times,serif" font-size="14.00">cerrando_automatico</text>
</g>
<!-- inicial&#45;&gt;cerrando_automatico -->
<g id="edge6" class="edge">
<title>inicial&#45;&gt;cerrando_automatico</title>
<path fill="none" stroke="black" d="M331.12,-353C372.82,-339.32 441.7,-316.71 491.78,-300.28"/>
<polygon fill="black" stroke="black" points="493.12,-303.52 501.53,-297.08 490.94,-296.87 493.12,-303.52"/>
<text text-anchor="middle" x="481.56" y="-318.8" font-family="Times,serif" font-size="14.00">ni fcc ni fca</text>
</g>
<!-- cerrada -->
<g id="node13" class="node">
<title>cerrada</title>
<polygon fill="none" stroke="orange" points="428.06,-210 357.06,-210 357.06,-174 428.06,-174 428.06,-210"/>
<text text-anchor="middle" x="392.56" y="-188.3" font-family="Times,serif" font-size="14.00">cerrada</text>
</g>
<!-- inicial&#45;&gt;cerrada -->
<g id="edge4" class="edge">
<title>inicial&#45;&gt;cerrada</title>
<path fill="none" stroke="black" d="M304.32,-347.88C321.56,-317.61 357.52,-254.51 377.81,-218.9"/>
<polygon fill="black" stroke="black" points="380.94,-220.47 382.85,-210.05 374.86,-217.01 380.94,-220.47"/>
<text text-anchor="middle" x="364.06" y="-275.3" font-family="Times,serif" font-size="14.00">fcc</text>
</g>
<!-- boton_cerrar_automatico -->
<g id="node2" class="node">
<title>boton_cerrar_automatico</title>
<polygon fill="none" stroke="blue" points="738.3,-384 444.42,-384 368.82,-348 662.7,-348 738.3,-384"/>
<text text-anchor="middle" x="553.56" y="-362.3" font-family="Times,serif" font-size="14.00">boton_cerrar_automatico</text>
</g>
<!-- boton_cerrar_automatico&#45;&gt;cerrando_automatico -->
<g id="edge1" class="edge">
<title>boton_cerrar_automatico&#45;&gt;cerrando_automatico</title>
<path fill="none" stroke="black" d="M553.56,-347.8C553.56,-336.16 553.56,-320.55 553.56,-307.24"/>
<polygon fill="black" stroke="black" points="557.06,-307.18 553.56,-297.18 550.06,-307.18 557.06,-307.18"/>
</g>
<!-- boton_abrir_automatico -->
<g id="node3" class="node">
<title>boton_abrir_automatico</title>
<polygon fill="none" stroke="blue" points="1007.65,-544 727.54,-544 655.48,-508 935.59,-508 1007.65,-544"/>
<text text-anchor="middle" x="831.56" y="-522.3" font-family="Times,serif" font-size="14.00">boton_abrir_automatico</text>
</g>
<!-- abriendo_automatico -->
<g id="node5" class="node">
<title>abriendo_automatico</title>
<polygon fill="none" stroke="green" points="914.56,-471 748.56,-471 748.56,-435 914.56,-435 914.56,-471"/>
<text text-anchor="middle" x="831.56" y="-449.3" font-family="Times,serif" font-size="14.00">abriendo_automatico</text>
</g>
<!-- boton_abrir_automatico&#45;&gt;abriendo_automatico -->
<g id="edge2" class="edge">
<title>boton_abrir_automatico&#45;&gt;abriendo_automatico</title>
<path fill="none" stroke="black" d="M831.56,-507.81C831.56,-499.79 831.56,-490.05 831.56,-481.07"/>
<polygon fill="black" stroke="black" points="835.06,-481.03 831.56,-471.03 828.06,-481.03 835.06,-481.03"/>
</g>
<!-- boton_abrir_manual -->
<g id="node4" class="node">
<title>boton_abrir_manual</title>
<polygon fill="none" stroke="blue" points="301.19,-471 61.58,-471 -0.06,-435 239.55,-435 301.19,-471"/>
<text text-anchor="middle" x="150.56" y="-449.3" font-family="Times,serif" font-size="14.00">boton_abrir_manual</text>
</g>
<!-- abriendo_manual -->
<g id="node7" class="node">
<title>abriendo_manual</title>
<polygon fill="none" stroke="green" points="220.06,-384 81.06,-384 81.06,-348 220.06,-348 220.06,-384"/>
<text text-anchor="middle" x="150.56" y="-362.3" font-family="Times,serif" font-size="14.00">abriendo_manual</text>
</g>
<!-- boton_abrir_manual&#45;&gt;abriendo_manual -->
<g id="edge3" class="edge">
<title>boton_abrir_manual&#45;&gt;abriendo_manual</title>
<path fill="none" stroke="black" d="M150.56,-434.8C150.56,-423.16 150.56,-407.55 150.56,-394.24"/>
<polygon fill="black" stroke="black" points="154.06,-394.18 150.56,-384.18 147.06,-394.18 154.06,-394.18"/>
</g>
<!-- abierta_sin_ocupar -->
<g id="node11" class="node">
<title>abierta_sin_ocupar</title>
<polygon fill="none" stroke="yellow" points="907.06,-384 756.06,-384 756.06,-348 907.06,-348 907.06,-384"/>
<text text-anchor="middle" x="831.56" y="-362.3" font-family="Times,serif" font-size="14.00">abierta_sin_ocupar</text>
</g>
<!-- abriendo_automatico&#45;&gt;abierta_sin_ocupar -->
<g id="edge7" class="edge">
<title>abriendo_automatico&#45;&gt;abierta_sin_ocupar</title>
<path fill="none" stroke="black" d="M831.56,-434.8C831.56,-423.16 831.56,-407.55 831.56,-394.24"/>
<polygon fill="black" stroke="black" points="835.06,-394.18 831.56,-384.18 828.06,-394.18 835.06,-394.18"/>
<text text-anchor="middle" x="842.56" y="-405.8" font-family="Times,serif" font-size="14.00">fca</text>
</g>
<!-- reabriendo_automatico -->
<g id="node6" class="node">
<title>reabriendo_automatico</title>
<polygon fill="none" stroke="green" points="764.06,-210 583.06,-210 583.06,-174 764.06,-174 764.06,-210"/>
<text text-anchor="middle" x="673.56" y="-188.3" font-family="Times,serif" font-size="14.00">reabriendo_automatico</text>
</g>
<!-- abierta_ocupada -->
<g id="node10" class="node">
<title>abierta_ocupada</title>
<polygon fill="none" stroke="yellow" points="744.56,-123 610.56,-123 610.56,-87 744.56,-87 744.56,-123"/>
<text text-anchor="middle" x="677.56" y="-101.3" font-family="Times,serif" font-size="14.00">abierta_ocupada</text>
</g>
<!-- reabriendo_automatico&#45;&gt;abierta_ocupada -->
<g id="edge8" class="edge">
<title>reabriendo_automatico&#45;&gt;abierta_ocupada</title>
<path fill="none" stroke="black" d="M674.37,-173.8C674.92,-162.16 675.66,-146.55 676.28,-133.24"/>
<polygon fill="black" stroke="black" points="679.78,-133.33 676.76,-123.18 672.79,-133 679.78,-133.33"/>
<text text-anchor="middle" x="687.56" y="-144.8" font-family="Times,serif" font-size="14.00">fca</text>
</g>
<!-- abriendo_manual&#45;&gt;abierta_manual -->
<g id="edge16" class="edge">
<title>abriendo_manual&#45;&gt;abierta_manual</title>
<path fill="none" stroke="black" d="M163.52,-347.8C172.71,-335.59 185.21,-318.99 195.53,-305.28"/>
<polygon fill="black" stroke="black" points="198.41,-307.27 201.63,-297.18 192.82,-303.06 198.41,-307.27"/>
<text text-anchor="middle" x="197.56" y="-318.8" font-family="Times,serif" font-size="14.00">fca</text>
</g>
<!-- abierta_libre -->
<g id="node9" class="node">
<title>abierta_libre</title>
<polygon fill="none" stroke="yellow" points="640.06,-36 533.06,-36 533.06,0 640.06,0 640.06,-36"/>
<text text-anchor="middle" x="586.56" y="-14.3" font-family="Times,serif" font-size="14.00">abierta_libre</text>
</g>
<!-- abierta_libre&#45;&gt;abierta_ocupada -->
<g id="edge12" class="edge">
<title>abierta_libre&#45;&gt;abierta_ocupada</title>
<path fill="none" stroke="black" d="M580.52,-36.19C578.02,-46.57 577.02,-59.57 583.56,-69 588.24,-75.74 594.39,-81.18 601.29,-85.58"/>
<polygon fill="black" stroke="black" points="599.95,-88.83 610.4,-90.61 603.33,-82.71 599.95,-88.83"/>
<text text-anchor="middle" x="618.06" y="-57.8" font-family="Times,serif" font-size="14.00">obstaculo</text>
</g>
<!-- abierta_libre&#45;&gt;cerrando_automatico -->
<g id="edge13" class="edge">
<title>abierta_libre&#45;&gt;cerrando_automatico</title>
<path fill="none" stroke="black" d="M580.36,-36.26C578.56,-41.86 576.76,-48.13 575.56,-54 561.27,-124.09 556.17,-208.48 554.42,-250.88"/>
<polygon fill="black" stroke="black" points="550.92,-250.84 554.04,-260.96 557.92,-251.1 550.92,-250.84"/>
<text text-anchor="middle" x="570.56" y="-144.8" font-family="Times,serif" font-size="14.00">t1</text>
</g>
<!-- abierta_ocupada&#45;&gt;abierta_libre -->
<g id="edge11" class="edge">
<title>abierta_ocupada&#45;&gt;abierta_libre</title>
<path fill="none" stroke="black" d="M673.53,-86.56C670.38,-76.08 665.06,-63.07 656.56,-54 652.18,-49.31 647.02,-45.16 641.54,-41.51"/>
<polygon fill="black" stroke="black" points="643.08,-38.35 632.71,-36.18 639.46,-44.35 643.08,-38.35"/>
<text text-anchor="middle" x="712.06" y="-57.8" font-family="Times,serif" font-size="14.00">no obstaculo</text>
</g>
<!-- abierta_sin_ocupar&#45;&gt;abierta_ocupada -->
<g id="edge9" class="edge">
<title>abierta_sin_ocupar&#45;&gt;abierta_ocupada</title>
<path fill="none" stroke="black" d="M829.95,-347.81C825.86,-312.25 812.44,-229.32 772.56,-174 759.11,-155.34 738.93,-139.86 720.62,-128.41"/>
<polygon fill="black" stroke="black" points="722.19,-125.27 711.82,-123.12 718.58,-131.27 722.19,-125.27"/>
<text text-anchor="middle" x="841.06" y="-231.8" font-family="Times,serif" font-size="14.00">obstaculo</text>
</g>
<!-- abierta_sin_ocupar&#45;&gt;cerrando_automatico -->
<g id="edge10" class="edge">
<title>abierta_sin_ocupar&#45;&gt;cerrando_automatico</title>
<path fill="none" stroke="black" d="M775.64,-347.9C730.4,-334.07 666.61,-314.56 619,-300.01"/>
<polygon fill="black" stroke="black" points="619.98,-296.65 609.4,-297.07 617.94,-303.34 619.98,-296.65"/>
<text text-anchor="middle" x="717.56" y="-318.8" font-family="Times,serif" font-size="14.00">t2</text>
</g>
<!-- cerrando_automatico&#45;&gt;reabriendo_automatico -->
<g id="edge14" class="edge">
<title>cerrando_automatico&#45;&gt;reabriendo_automatico</title>
<path fill="none" stroke="black" d="M577.85,-260.8C596.07,-247.9 621.19,-230.1 641.13,-215.98"/>
<polygon fill="black" stroke="black" points="643.18,-218.81 649.32,-210.18 639.13,-213.1 643.18,-218.81"/>
<text text-anchor="middle" x="656.06" y="-231.8" font-family="Times,serif" font-size="14.00">obstaculo</text>
</g>
<!-- cerrando_automatico&#45;&gt;cerrada -->
<g id="edge15" class="edge">
<title>cerrando_automatico&#45;&gt;cerrada</title>
<path fill="none" stroke="black" d="M520.98,-260.8C495.81,-247.51 460.79,-229.02 433.69,-214.71"/>
<polygon fill="black" stroke="black" points="435.3,-211.6 424.82,-210.03 432.03,-217.79 435.3,-211.6"/>
<text text-anchor="middle" x="494.06" y="-231.8" font-family="Times,serif" font-size="14.00">fcc</text>
</g>
<!-- open=1 | close=0 | hold=1 -->
<g id="node14" class="node">
<title>open=1 | close=0 | hold=1</title>
<polygon fill="none" stroke="green" points="1233.56,-544 1025.56,-544 1025.56,-508 1233.56,-508 1233.56,-544"/>
<text text-anchor="middle" x="1129.56" y="-522.3" font-family="Times,serif" font-size="14.00">open=1 | close=0 | hold=1</text>
</g>
<!-- open=0 | close=0 | hold=1 -->
<g id="node15" class="node">
<title>open=0 | close=0 | hold=1</title>
<polygon fill="none" stroke="yellow" points="1233.56,-471 1025.56,-471 1025.56,-435 1233.56,-435 1233.56,-471"/>
<text text-anchor="middle" x="1129.56" y="-449.3" font-family="Times,serif" font-size="14.00">open=0 | close=0 | hold=1</text>
</g>
<!-- open=1 | close=0 | hold=1&#45;&gt;open=0 | close=0 | hold=1 -->
<g id="edge17" class="edge">
<title>open=1 | close=0 | hold=1&#45;&gt;open=0 | close=0 | hold=1</title>
<path fill="none" stroke="black" d="M1129.56,-507.81C1129.56,-499.79 1129.56,-490.05 1129.56,-481.07"/>
<polygon fill="black" stroke="black" points="1133.06,-481.03 1129.56,-471.03 1126.06,-481.03 1133.06,-481.03"/>
</g>
<!-- open=0 | close=1 | hold=0 -->
<g id="node16" class="node">
<title>open=0 | close=1 | hold=0</title>
<polygon fill="none" stroke="red" points="1233.56,-384 1025.56,-384 1025.56,-348 1233.56,-348 1233.56,-384"/>
<text text-anchor="middle" x="1129.56" y="-362.3" font-family="Times,serif" font-size="14.00">open=0 | close=1 | hold=0</text>
</g>
<!-- open=0 | close=0 | hold=1&#45;&gt;open=0 | close=1 | hold=0 -->
<g id="edge18" class="edge">
<title>open=0 | close=0 | hold=1&#45;&gt;open=0 | close=1 | hold=0</title>
<path fill="none" stroke="black" d="M1129.56,-434.8C1129.56,-423.16 1129.56,-407.55 1129.56,-394.24"/>
<polygon fill="black" stroke="black" points="1133.06,-394.18 1129.56,-384.18 1126.06,-394.18 1133.06,-394.18"/>
</g>
<!-- open=0 | close=0 | hold=0 -->
<g id="node17" class="node">
<title>open=0 | close=0 | hold=0</title>
<polygon fill="none" stroke="orange" points="1233.56,-297 1025.56,-297 1025.56,-261 1233.56,-261 1233.56,-297"/>
<text text-anchor="middle" x="1129.56" y="-275.3" font-family="Times,serif" font-size="14.00">open=0 | close=0 | hold=0</text>
</g>
<!-- open=0 | close=1 | hold=0&#45;&gt;open=0 | close=0 | hold=0 -->
<g id="edge19" class="edge">
<title>open=0 | close=1 | hold=0&#45;&gt;open=0 | close=0 | hold=0</title>
<path fill="none" stroke="black" d="M1129.56,-347.8C1129.56,-336.16 1129.56,-320.55 1129.56,-307.24"/>
<polygon fill="black" stroke="black" points="1133.06,-307.18 1129.56,-297.18 1126.06,-307.18 1133.06,-307.18"/>
</g>
</g>
</svg>
