<?xml version="1.0" encoding="UTF-8" standalone="no"?>
<!DOCTYPE svg PUBLIC "-//W3C//DTD SVG 1.1//EN"
 "http://www.w3.org/Graphics/SVG/1.1/DTD/svg11.dtd">
<!-- Generated by graphviz version 2.43.0 (0)
 -->
<!-- Title: G Pages: 1 -->
<svg width="730pt" height="740pt"
 viewBox="0.00 0.00 729.65 740.00" xmlns="http://www.w3.org/2000/svg" xmlns:xlink="http://www.w3.org/1999/xlink">
<g id="graph0" class="graph" transform="scale(1 1) rotate(0) translate(4 736)">
<title>G</title>
<polygon fill="white" stroke="transparent" points="-4,4 -4,-736 725.65,-736 725.65,4 -4,4"/>
<!-- inicial auto -->
<g id="node1" class="node">
<title>inicial auto</title>
<polygon fill="none" stroke="blue" points="681.21,-558 537.15,-558 500.09,-522 644.15,-522 681.21,-558"/>
<text text-anchor="middle" x="590.65" y="-536.3" font-family="Times,serif" font-size="14.00">inicial auto</text>
</g>
<!-- abierta -->
<g id="node9" class="node">
<title>abierta</title>
<polygon fill="none" stroke="black" points="270.65,-471 202.65,-471 202.65,-435 270.65,-435 270.65,-471"/>
<text text-anchor="middle" x="236.65" y="-449.3" font-family="Times,serif" font-size="14.00">abierta</text>
</g>
<!-- inicial auto&#45;&gt;abierta -->
<g id="edge7" class="edge">
<title>inicial auto&#45;&gt;abierta</title>
<path fill="none" stroke="black" d="M528.79,-521.94C491.73,-511.91 443.62,-499.23 400.65,-489 360.09,-479.34 313.6,-469.54 280.5,-462.77"/>
<polygon fill="black" stroke="black" points="281.17,-459.34 270.67,-460.78 279.78,-466.2 281.17,-459.34"/>
<text text-anchor="middle" x="469.65" y="-492.8" font-family="Times,serif" font-size="14.00">fca</text>
</g>
<!-- cerrando_pulso -->
<g id="node10" class="node">
<title>cerrando_pulso</title>
<polygon fill="none" stroke="green" points="456.15,-210 331.15,-210 331.15,-174 456.15,-174 456.15,-210"/>
<text text-anchor="middle" x="393.65" y="-188.3" font-family="Times,serif" font-size="14.00">cerrando_pulso</text>
</g>
<!-- inicial auto&#45;&gt;cerrando_pulso -->
<g id="edge8" class="edge">
<title>inicial auto&#45;&gt;cerrando_pulso</title>
<path fill="none" stroke="black" d="M590.65,-521.74C590.65,-504.57 590.65,-477.46 590.65,-454 590.65,-454 590.65,-454 590.65,-278 590.65,-221.86 522.38,-202.36 466.22,-195.82"/>
<polygon fill="black" stroke="black" points="466.56,-192.34 456.25,-194.78 465.83,-199.3 466.56,-192.34"/>
<text text-anchor="middle" x="631.65" y="-362.3" font-family="Times,serif" font-size="14.00">ni fcc ni fca</text>
</g>
<!-- cerrada -->
<g id="node12" class="node">
<title>cerrada</title>
<polygon fill="none" stroke="black" points="550.15,-36 479.15,-36 479.15,0 550.15,0 550.15,-36"/>
<text text-anchor="middle" x="514.65" y="-14.3" font-family="Times,serif" font-size="14.00">cerrada</text>
</g>
<!-- inicial auto&#45;&gt;cerrada -->
<g id="edge6" class="edge">
<title>inicial auto&#45;&gt;cerrada</title>
<path fill="none" stroke="black" d="M640.82,-521.97C669.83,-508.6 700.65,-486.7 700.65,-454 700.65,-454 700.65,-454 700.65,-104 700.65,-42.63 615.84,-25.38 560.76,-20.65"/>
<polygon fill="black" stroke="black" points="560.74,-17.14 550.51,-19.89 560.22,-24.12 560.74,-17.14"/>
<text text-anchor="middle" x="711.15" y="-275.3" font-family="Times,serif" font-size="14.00">fcc</text>
</g>
<!-- boton_cerrar -->
<g id="node2" class="node">
<title>boton_cerrar</title>
<polygon fill="none" stroke="blue" points="562.48,-297 398.89,-297 356.81,-261 520.4,-261 562.48,-297"/>
<text text-anchor="middle" x="459.65" y="-275.3" font-family="Times,serif" font-size="14.00">boton_cerrar</text>
</g>
<!-- boton_cerrar&#45;&gt;cerrando_pulso -->
<g id="edge1" class="edge">
<title>boton_cerrar&#45;&gt;cerrando_pulso</title>
<path fill="none" stroke="black" d="M446.29,-260.8C436.81,-248.59 423.92,-231.99 413.27,-218.28"/>
<polygon fill="black" stroke="black" points="415.88,-215.93 406.98,-210.18 410.35,-220.22 415.88,-215.93"/>
</g>
<!-- boton_abrir auto -->
<g id="node3" class="node">
<title>boton_abrir auto</title>
<polygon fill="none" stroke="blue" points="257.44,-732 52.56,-732 -0.15,-696 204.74,-696 257.44,-732"/>
<text text-anchor="middle" x="128.65" y="-710.3" font-family="Times,serif" font-size="14.00">boton_abrir auto</text>
</g>
<!-- abriendo_pulso -->
<g id="node5" class="node">
<title>abriendo_pulso</title>
<polygon fill="none" stroke="green" points="299.15,-645 174.15,-645 174.15,-609 299.15,-609 299.15,-645"/>
<text text-anchor="middle" x="236.65" y="-623.3" font-family="Times,serif" font-size="14.00">abriendo_pulso</text>
</g>
<!-- boton_abrir auto&#45;&gt;abriendo_pulso -->
<g id="edge2" class="edge">
<title>boton_abrir auto&#45;&gt;abriendo_pulso</title>
<path fill="none" stroke="black" d="M150.5,-695.8C166.6,-683.13 188.7,-665.73 206.49,-651.74"/>
<polygon fill="black" stroke="black" points="209.13,-654.11 214.82,-645.18 204.8,-648.61 209.13,-654.11"/>
<text text-anchor="middle" x="211.15" y="-666.8" font-family="Times,serif" font-size="14.00">no fca</text>
</g>
<!-- boton_abrir auto&#45;&gt;abierta -->
<g id="edge3" class="edge">
<title>boton_abrir auto&#45;&gt;abierta</title>
<path fill="none" stroke="black" d="M131.6,-695.76C138.02,-661.16 155.34,-581.47 187.65,-522 195.77,-507.04 206.71,-491.55 216.18,-479.14"/>
<polygon fill="black" stroke="black" points="219.08,-481.13 222.46,-471.09 213.55,-476.82 219.08,-481.13"/>
<text text-anchor="middle" x="174.65" y="-579.8" font-family="Times,serif" font-size="14.00">fca</text>
</g>
<!-- boton_abrir !auto -->
<g id="node4" class="node">
<title>boton_abrir !auto</title>
<polygon fill="none" stroke="blue" points="543.88,-732 330.35,-732 275.42,-696 488.95,-696 543.88,-732"/>
<text text-anchor="middle" x="409.65" y="-710.3" font-family="Times,serif" font-size="14.00">boton_abrir !auto</text>
</g>
<!-- boton_abrir !auto&#45;&gt;abriendo_pulso -->
<g id="edge4" class="edge">
<title>boton_abrir !auto&#45;&gt;abriendo_pulso</title>
<path fill="none" stroke="black" d="M368.66,-695.83C356.05,-690.34 342.19,-684.1 329.65,-678 311.71,-669.27 292.21,-658.93 275.72,-649.92"/>
<polygon fill="black" stroke="black" points="277.35,-646.82 266.9,-645.07 273.98,-652.95 277.35,-646.82"/>
<text text-anchor="middle" x="351.15" y="-666.8" font-family="Times,serif" font-size="14.00">no fca</text>
</g>
<!-- boton_abrir !auto&#45;&gt;abierta -->
<g id="edge5" class="edge">
<title>boton_abrir !auto&#45;&gt;abierta</title>
<path fill="none" stroke="black" d="M402.59,-695.84C391.28,-669.16 367.61,-616.6 340.65,-576 316.58,-539.76 283.12,-502.28 260.72,-478.6"/>
<polygon fill="black" stroke="black" points="263.01,-475.93 253.58,-471.12 257.95,-480.77 263.01,-475.93"/>
<text text-anchor="middle" x="361.65" y="-579.8" font-family="Times,serif" font-size="14.00">fca</text>
</g>
<!-- abriendo_pulso&#45;&gt;abriendo_pulso -->
<g id="edge12" class="edge">
<title>abriendo_pulso&#45;&gt;abriendo_pulso</title>
<path fill="none" stroke="black" d="M299.42,-634.32C309.91,-633.3 317.15,-630.86 317.15,-627 317.15,-624.59 314.32,-622.73 309.64,-621.43"/>
<polygon fill="black" stroke="black" points="309.87,-617.92 299.42,-619.68 308.69,-624.82 309.87,-617.92"/>
<text text-anchor="middle" x="325.15" y="-623.3" font-family="Times,serif" font-size="14.00">t3</text>
</g>
<!-- abriendo -->
<g id="node6" class="node">
<title>abriendo</title>
<polygon fill="none" stroke="black" points="276.65,-558 196.65,-558 196.65,-522 276.65,-522 276.65,-558"/>
<text text-anchor="middle" x="236.65" y="-536.3" font-family="Times,serif" font-size="14.00">abriendo</text>
</g>
<!-- abriendo_pulso&#45;&gt;abriendo -->
<g id="edge9" class="edge">
<title>abriendo_pulso&#45;&gt;abriendo</title>
<path fill="none" stroke="black" d="M247.58,-608.67C252.29,-599.16 256.2,-587.08 253.65,-576 252.99,-573.16 252.08,-570.29 251.01,-567.47"/>
<polygon fill="black" stroke="black" points="254.17,-565.96 246.92,-558.23 247.77,-568.79 254.17,-565.96"/>
<text text-anchor="middle" x="295.65" y="-579.8" font-family="Times,serif" font-size="14.00">ni fcc ni fca</text>
</g>
<!-- abriendo&#45;&gt;abriendo_pulso -->
<g id="edge11" class="edge">
<title>abriendo&#45;&gt;abriendo_pulso</title>
<path fill="none" stroke="black" d="M208.31,-558.02C202.39,-563.02 196.95,-569.05 193.65,-576 189.26,-585.23 193.16,-594.1 200.1,-601.74"/>
<polygon fill="black" stroke="black" points="198.15,-604.7 207.86,-608.94 202.91,-599.57 198.15,-604.7"/>
<text text-anchor="middle" x="204.15" y="-579.8" font-family="Times,serif" font-size="14.00">fcc</text>
</g>
<!-- abriendo&#45;&gt;abriendo_pulso -->
<g id="edge13" class="edge">
<title>abriendo&#45;&gt;abriendo_pulso</title>
<path fill="none" stroke="black" d="M234.75,-558.12C233.9,-567.77 233.18,-580.05 233.65,-591 233.76,-593.56 233.91,-596.22 234.09,-598.88"/>
<polygon fill="black" stroke="black" points="230.61,-599.24 234.89,-608.93 237.59,-598.68 230.61,-599.24"/>
<text text-anchor="middle" x="241.65" y="-579.8" font-family="Times,serif" font-size="14.00">t4</text>
</g>
<!-- abriendo&#45;&gt;abierta -->
<g id="edge10" class="edge">
<title>abriendo&#45;&gt;abierta</title>
<path fill="none" stroke="black" d="M236.65,-521.8C236.65,-510.16 236.65,-494.55 236.65,-481.24"/>
<polygon fill="black" stroke="black" points="240.15,-481.18 236.65,-471.18 233.15,-481.18 240.15,-481.18"/>
<text text-anchor="middle" x="247.65" y="-492.8" font-family="Times,serif" font-size="14.00">fca</text>
</g>
<!-- abierta_libre -->
<g id="node7" class="node">
<title>abierta_libre</title>
<polygon fill="none" stroke="black" points="290.15,-297 183.15,-297 183.15,-261 290.15,-261 290.15,-297"/>
<text text-anchor="middle" x="236.65" y="-275.3" font-family="Times,serif" font-size="14.00">abierta_libre</text>
</g>
<!-- abierta_ocupada -->
<g id="node8" class="node">
<title>abierta_ocupada</title>
<polygon fill="none" stroke="black" points="152.65,-384 18.65,-384 18.65,-348 152.65,-348 152.65,-384"/>
<text text-anchor="middle" x="85.65" y="-362.3" font-family="Times,serif" font-size="14.00">abierta_ocupada</text>
</g>
<!-- abierta_libre&#45;&gt;abierta_ocupada -->
<g id="edge18" class="edge">
<title>abierta_libre&#45;&gt;abierta_ocupada</title>
<path fill="none" stroke="black" d="M233.12,-297.11C230.02,-308 224.42,-321.59 214.65,-330 199.97,-342.63 181.15,-350.75 162.45,-355.95"/>
<polygon fill="black" stroke="black" points="161.55,-352.57 152.71,-358.41 163.26,-359.36 161.55,-352.57"/>
<text text-anchor="middle" x="260.15" y="-318.8" font-family="Times,serif" font-size="14.00">obstaculo</text>
</g>
<!-- abierta_libre&#45;&gt;cerrando_pulso -->
<g id="edge19" class="edge">
<title>abierta_libre&#45;&gt;cerrando_pulso</title>
<path fill="none" stroke="black" d="M254.49,-260.98C266.3,-250.41 282.53,-237.14 298.65,-228 308.01,-222.69 318.33,-217.92 328.62,-213.73"/>
<polygon fill="black" stroke="black" points="329.99,-216.95 338.02,-210.05 327.44,-210.43 329.99,-216.95"/>
<text text-anchor="middle" x="306.65" y="-231.8" font-family="Times,serif" font-size="14.00">t1</text>
</g>
<!-- abierta_ocupada&#45;&gt;abierta_libre -->
<g id="edge17" class="edge">
<title>abierta_ocupada&#45;&gt;abierta_libre</title>
<path fill="none" stroke="black" d="M81.12,-347.92C79.39,-337.32 79.32,-324.04 86.65,-315 97.76,-301.28 137.34,-292.4 173.05,-287.02"/>
<polygon fill="black" stroke="black" points="173.59,-290.47 182.99,-285.59 172.59,-283.55 173.59,-290.47"/>
<text text-anchor="middle" x="150.65" y="-318.8" font-family="Times,serif" font-size="14.00">auto &amp; !obstaculo</text>
</g>
<!-- abierta_ocupada&#45;&gt;abierta -->
<g id="edge15" class="edge">
<title>abierta_ocupada&#45;&gt;abierta</title>
<path fill="none" stroke="black" d="M48.12,-384.19C33.2,-393.37 21.68,-405.18 31.65,-417 51.82,-440.92 138.66,-448.49 192.63,-450.89"/>
<polygon fill="black" stroke="black" points="192.5,-454.39 202.63,-451.29 192.78,-447.39 192.5,-454.39"/>
<text text-anchor="middle" x="98.65" y="-405.8" font-family="Times,serif" font-size="14.00">!auto &amp; !obstaculo</text>
</g>
<!-- abierta&#45;&gt;abierta_ocupada -->
<g id="edge14" class="edge">
<title>abierta&#45;&gt;abierta_ocupada</title>
<path fill="none" stroke="black" d="M214.94,-434.89C199.07,-422.56 178.79,-407.21 169.65,-402 160.9,-397.01 151.29,-392.34 141.81,-388.13"/>
<polygon fill="black" stroke="black" points="142.97,-384.82 132.4,-384.09 140.2,-391.25 142.97,-384.82"/>
<text text-anchor="middle" x="252.65" y="-405.8" font-family="Times,serif" font-size="14.00">auto &amp; obstaculo</text>
</g>
<!-- abierta&#45;&gt;cerrando_pulso -->
<g id="edge16" class="edge">
<title>abierta&#45;&gt;cerrando_pulso</title>
<path fill="none" stroke="black" d="M271.02,-444.2C286.52,-438.99 303.74,-430.52 314.65,-417 359.14,-361.84 319.94,-326.23 347.65,-261 354.12,-245.76 364.19,-230.34 373.26,-218.05"/>
<polygon fill="black" stroke="black" points="376.06,-220.16 379.33,-210.09 370.49,-215.92 376.06,-220.16"/>
<text text-anchor="middle" x="372.15" y="-318.8" font-family="Times,serif" font-size="14.00">auto &amp; t2</text>
</g>
<!-- cerrando_pulso&#45;&gt;cerrando_pulso -->
<g id="edge20" class="edge">
<title>cerrando_pulso&#45;&gt;cerrando_pulso</title>
<path fill="none" stroke="black" d="M456.42,-199.32C466.91,-198.3 474.15,-195.86 474.15,-192 474.15,-189.59 471.32,-187.73 466.64,-186.43"/>
<polygon fill="black" stroke="black" points="466.87,-182.92 456.42,-184.68 465.69,-189.82 466.87,-182.92"/>
<text text-anchor="middle" x="482.15" y="-188.3" font-family="Times,serif" font-size="14.00">t3</text>
</g>
<!-- cerrando -->
<g id="node11" class="node">
<title>cerrando</title>
<polygon fill="none" stroke="black" points="433.65,-123 353.65,-123 353.65,-87 433.65,-87 433.65,-123"/>
<text text-anchor="middle" x="393.65" y="-101.3" font-family="Times,serif" font-size="14.00">cerrando</text>
</g>
<!-- cerrando_pulso&#45;&gt;cerrando -->
<g id="edge22" class="edge">
<title>cerrando_pulso&#45;&gt;cerrando</title>
<path fill="none" stroke="black" d="M393.65,-173.8C393.65,-162.16 393.65,-146.55 393.65,-133.24"/>
<polygon fill="black" stroke="black" points="397.15,-133.18 393.65,-123.18 390.15,-133.18 397.15,-133.18"/>
<text text-anchor="middle" x="434.65" y="-144.8" font-family="Times,serif" font-size="14.00">ni fcc ni fca</text>
</g>
<!-- cerrando&#45;&gt;abierta_ocupada -->
<g id="edge24" class="edge">
<title>cerrando&#45;&gt;abierta_ocupada</title>
<path fill="none" stroke="black" d="M353.54,-118.47C282.61,-142.95 136.9,-204.78 77.65,-315 73.88,-322 73.78,-330.29 75.21,-338.09"/>
<polygon fill="black" stroke="black" points="71.87,-339.13 77.81,-347.9 78.63,-337.34 71.87,-339.13"/>
<text text-anchor="middle" x="161.65" y="-231.8" font-family="Times,serif" font-size="14.00">fca</text>
</g>
<!-- cerrando&#45;&gt;cerrando_pulso -->
<g id="edge21" class="edge">
<title>cerrando&#45;&gt;cerrando_pulso</title>
<path fill="none" stroke="black" d="M381.44,-123.27C376.18,-132.76 371.81,-144.84 374.65,-156 375.41,-158.99 376.48,-161.99 377.73,-164.92"/>
<polygon fill="black" stroke="black" points="374.6,-166.49 382.17,-173.9 380.87,-163.39 374.6,-166.49"/>
<text text-anchor="middle" x="382.65" y="-144.8" font-family="Times,serif" font-size="14.00">t4</text>
</g>
<!-- cerrando&#45;&gt;cerrada -->
<g id="edge23" class="edge">
<title>cerrando&#45;&gt;cerrada</title>
<path fill="none" stroke="black" d="M418.13,-86.8C436.5,-73.9 461.83,-56.1 481.94,-41.98"/>
<polygon fill="black" stroke="black" points="484.03,-44.79 490.2,-36.18 480,-39.06 484.03,-44.79"/>
<text text-anchor="middle" x="472.15" y="-57.8" font-family="Times,serif" font-size="14.00">fcc</text>
</g>
<!-- toggle=1 -->
<g id="node13" class="node">
<title>toggle=1</title>
<polygon fill="none" stroke="green" points="645.15,-645 562.15,-645 562.15,-609 645.15,-609 645.15,-645"/>
<text text-anchor="middle" x="603.65" y="-623.3" font-family="Times,serif" font-size="14.00">toggle=1</text>
</g>
<!-- toggle=0 -->
<g id="node14" class="node">
<title>toggle=0</title>
<polygon fill="none" stroke="black" points="645.15,-732 562.15,-732 562.15,-696 645.15,-696 645.15,-732"/>
<text text-anchor="middle" x="603.65" y="-710.3" font-family="Times,serif" font-size="14.00">toggle=0</text>
</g>
<!-- toggle=0&#45;&gt;toggle=1 -->
<g id="edge25" class="edge">
<title>toggle=0&#45;&gt;toggle=1</title>
<path fill="none" stroke="black" d="M603.65,-695.8C603.65,-684.16 603.65,-668.55 603.65,-655.24"/>
<polygon fill="black" stroke="black" points="607.15,-655.18 603.65,-645.18 600.15,-655.18 607.15,-655.18"/>
</g>
</g>
</svg>
