<?xml version="1.0" encoding="UTF-8" standalone="no"?>
<!DOCTYPE svg PUBLIC "-//W3C//DTD SVG 1.1//EN"
 "http://www.w3.org/Graphics/SVG/1.1/DTD/svg11.dtd">
<!-- Generated by graphviz version 2.43.0 (0)
 -->
<!-- Title: G Pages: 1 -->
<svg width="875pt" height="740pt"
 viewBox="0.00 0.00 875.00 740.00" xmlns="http://www.w3.org/2000/svg" xmlns:xlink="http://www.w3.org/1999/xlink">
<g id="graph0" class="graph" transform="scale(1 1) rotate(0) translate(4 736)">
<title>G</title>
<polygon fill="white" stroke="transparent" points="-4,4 -4,-736 871,-736 871,4 -4,4"/>
<!-- inicial auto -->
<g id="node1" class="node">
<title>inicial auto</title>
<polygon fill="none" stroke="blue" points="679.56,-558 535.5,-558 498.44,-522 642.5,-522 679.56,-558"/>
<text text-anchor="middle" x="589" y="-536.3" font-family="Times,serif" font-size="14.00">inicial auto</text>
</g>
<!-- abierta -->
<g id="node10" class="node">
<title>abierta</title>
<polygon fill="none" stroke="black" points="428,-471 360,-471 360,-435 428,-435 428,-471"/>
<text text-anchor="middle" x="394" y="-449.3" font-family="Times,serif" font-size="14.00">abierta</text>
</g>
<!-- inicial auto&#45;&gt;abierta -->
<g id="edge7" class="edge">
<title>inicial auto&#45;&gt;abierta</title>
<path fill="none" stroke="black" d="M554.77,-521.92C534.39,-511.94 507.91,-499.33 484,-489 468.98,-482.51 452.32,-475.88 437.47,-470.16"/>
<polygon fill="black" stroke="black" points="438.59,-466.85 428,-466.55 436.09,-473.39 438.59,-466.85"/>
<text text-anchor="middle" x="528" y="-492.8" font-family="Times,serif" font-size="14.00">fca</text>
</g>
<!-- cerrando_pulso -->
<g id="node11" class="node">
<title>cerrando_pulso</title>
<polygon fill="none" stroke="green" points="638.5,-210 513.5,-210 513.5,-174 638.5,-174 638.5,-210"/>
<text text-anchor="middle" x="576" y="-188.3" font-family="Times,serif" font-size="14.00">cerrando_pulso</text>
</g>
<!-- inicial auto&#45;&gt;cerrando_pulso -->
<g id="edge8" class="edge">
<title>inicial auto&#45;&gt;cerrando_pulso</title>
<path fill="none" stroke="black" d="M584.82,-521.86C581.01,-504.78 576,-477.74 576,-454 576,-454 576,-454 576,-278 576,-258.75 576,-237.05 576,-220.4"/>
<polygon fill="black" stroke="black" points="579.5,-220.26 576,-210.26 572.5,-220.26 579.5,-220.26"/>
<text text-anchor="middle" x="614" y="-362.3" font-family="Times,serif" font-size="14.00">!fcc &amp; !fca</text>
</g>
<!-- cerrada -->
<g id="node13" class="node">
<title>cerrada</title>
<polygon fill="none" stroke="black" points="808.5,-36 737.5,-36 737.5,0 808.5,0 808.5,-36"/>
<text text-anchor="middle" x="773" y="-14.3" font-family="Times,serif" font-size="14.00">cerrada</text>
</g>
<!-- inicial auto&#45;&gt;cerrada -->
<g id="edge6" class="edge">
<title>inicial auto&#45;&gt;cerrada</title>
<path fill="none" stroke="black" d="M651.87,-530.91C727.95,-519.32 846,-494.77 846,-454 846,-454 846,-454 846,-104 846,-79.03 827.65,-57.74 809.35,-42.7"/>
<polygon fill="black" stroke="black" points="811.06,-39.6 801.01,-36.25 806.78,-45.14 811.06,-39.6"/>
<text text-anchor="middle" x="856.5" y="-275.3" font-family="Times,serif" font-size="14.00">fcc</text>
</g>
<!-- boton_cerrar -->
<g id="node2" class="node">
<title>boton_cerrar</title>
<polygon fill="none" stroke="blue" points="809.83,-297 646.25,-297 604.17,-261 767.75,-261 809.83,-297"/>
<text text-anchor="middle" x="707" y="-275.3" font-family="Times,serif" font-size="14.00">boton_cerrar</text>
</g>
<!-- boton_cerrar&#45;&gt;cerrando_pulso -->
<g id="edge1" class="edge">
<title>boton_cerrar&#45;&gt;cerrando_pulso</title>
<path fill="none" stroke="black" d="M680.49,-260.8C660.51,-247.84 632.93,-229.94 611.12,-215.79"/>
<polygon fill="black" stroke="black" points="612.76,-212.68 602.47,-210.18 608.95,-218.55 612.76,-212.68"/>
</g>
<!-- boton_abrir auto -->
<g id="node3" class="node">
<title>boton_abrir auto</title>
<polygon fill="none" stroke="blue" points="707.79,-732 502.91,-732 450.21,-696 655.09,-696 707.79,-732"/>
<text text-anchor="middle" x="579" y="-710.3" font-family="Times,serif" font-size="14.00">boton_abrir auto</text>
</g>
<!-- abriendo_pulso -->
<g id="node5" class="node">
<title>abriendo_pulso</title>
<polygon fill="none" stroke="green" points="321.5,-645 196.5,-645 196.5,-609 321.5,-609 321.5,-645"/>
<text text-anchor="middle" x="259" y="-623.3" font-family="Times,serif" font-size="14.00">abriendo_pulso</text>
</g>
<!-- boton_abrir auto&#45;&gt;abriendo_pulso -->
<g id="edge2" class="edge">
<title>boton_abrir auto&#45;&gt;abriendo_pulso</title>
<path fill="none" stroke="black" d="M501.58,-695.99C477.89,-690.54 451.81,-684.28 428,-678 393.29,-668.85 354.91,-657.59 323.5,-648.07"/>
<polygon fill="black" stroke="black" points="324.15,-644.61 313.57,-645.05 322.11,-651.31 324.15,-644.61"/>
<text text-anchor="middle" x="442" y="-666.8" font-family="Times,serif" font-size="14.00">!fca</text>
</g>
<!-- boton_abrir auto&#45;&gt;abierta -->
<g id="edge3" class="edge">
<title>boton_abrir auto&#45;&gt;abierta</title>
<path fill="none" stroke="black" d="M566.57,-695.6C534.72,-651 449.99,-532.39 412.4,-479.76"/>
<polygon fill="black" stroke="black" points="415.03,-477.42 406.37,-471.32 409.34,-481.49 415.03,-477.42"/>
<text text-anchor="middle" x="502" y="-579.8" font-family="Times,serif" font-size="14.00">fca</text>
</g>
<!-- boton_abrir !auto -->
<g id="node4" class="node">
<title>boton_abrir !auto</title>
<polygon fill="none" stroke="blue" points="432.23,-732 218.7,-732 163.77,-696 377.3,-696 432.23,-732"/>
<text text-anchor="middle" x="298" y="-710.3" font-family="Times,serif" font-size="14.00">boton_abrir !auto</text>
</g>
<!-- boton_abrir !auto&#45;&gt;abriendo_pulso -->
<g id="edge4" class="edge">
<title>boton_abrir !auto&#45;&gt;abriendo_pulso</title>
<path fill="none" stroke="black" d="M290.11,-695.8C284.66,-683.93 277.32,-667.93 271.14,-654.45"/>
<polygon fill="black" stroke="black" points="274.23,-652.8 266.88,-645.18 267.87,-655.72 274.23,-652.8"/>
<text text-anchor="middle" x="295" y="-666.8" font-family="Times,serif" font-size="14.00">!fca</text>
</g>
<!-- boton_abrir !auto&#45;&gt;abierta -->
<g id="edge5" class="edge">
<title>boton_abrir !auto&#45;&gt;abierta</title>
<path fill="none" stroke="black" d="M325.97,-695.78C342.88,-683.76 363.2,-666.12 374,-645 401.12,-591.95 400.12,-519.9 397.05,-481.22"/>
<polygon fill="black" stroke="black" points="400.53,-480.88 396.15,-471.24 393.56,-481.51 400.53,-480.88"/>
<text text-anchor="middle" x="406" y="-579.8" font-family="Times,serif" font-size="14.00">fca</text>
</g>
<!-- abriendo_pulso&#45;&gt;abriendo_pulso -->
<g id="edge10" class="edge">
<title>abriendo_pulso&#45;&gt;abriendo_pulso</title>
<path fill="none" stroke="black" d="M321.78,-634.32C332.26,-633.3 339.5,-630.86 339.5,-627 339.5,-624.59 336.67,-622.73 331.99,-621.43"/>
<polygon fill="black" stroke="black" points="332.23,-617.92 321.78,-619.68 331.04,-624.82 332.23,-617.92"/>
<text text-anchor="middle" x="352.5" y="-623.3" font-family="Times,serif" font-size="14.00">trsf</text>
</g>
<!-- abriendo -->
<g id="node6" class="node">
<title>abriendo</title>
<polygon fill="none" stroke="black" points="299,-558 219,-558 219,-522 299,-522 299,-558"/>
<text text-anchor="middle" x="259" y="-536.3" font-family="Times,serif" font-size="14.00">abriendo</text>
</g>
<!-- abriendo_pulso&#45;&gt;abriendo -->
<g id="edge9" class="edge">
<title>abriendo_pulso&#45;&gt;abriendo</title>
<path fill="none" stroke="black" d="M196.42,-612.86C175.21,-607.05 155.27,-599.57 149,-591 130.44,-565.62 171.33,-552.82 208.42,-546.57"/>
<polygon fill="black" stroke="black" points="209.38,-549.96 218.72,-544.97 208.31,-543.04 209.38,-549.96"/>
<text text-anchor="middle" x="193" y="-579.8" font-family="Times,serif" font-size="14.00">!fcc &amp;&amp; !fca</text>
</g>
<!-- abriendo&#45;&gt;abriendo_pulso -->
<g id="edge12" class="edge">
<title>abriendo&#45;&gt;abriendo_pulso</title>
<path fill="none" stroke="black" d="M259,-558.18C259,-569.81 259,-585.42 259,-598.73"/>
<polygon fill="black" stroke="black" points="255.5,-598.8 259,-608.8 262.5,-598.8 255.5,-598.8"/>
<text text-anchor="middle" x="269.5" y="-579.8" font-family="Times,serif" font-size="14.00">fcc</text>
</g>
<!-- abriendo&#45;&gt;abriendo_pulso -->
<g id="edge14" class="edge">
<title>abriendo&#45;&gt;abriendo_pulso</title>
<path fill="none" stroke="black" d="M272.5,-558.23C275.96,-563.62 279.21,-569.79 281,-576 283.32,-584.03 281.43,-592.46 277.96,-600.06"/>
<polygon fill="black" stroke="black" points="274.88,-598.39 273.11,-608.84 281.01,-601.78 274.88,-598.39"/>
<text text-anchor="middle" x="296" y="-579.8" font-family="Times,serif" font-size="14.00">trcf</text>
</g>
<!-- abriendo_ocupada -->
<g id="node7" class="node">
<title>abriendo_ocupada</title>
<polygon fill="none" stroke="black" points="146,-732 0,-732 0,-696 146,-696 146,-732"/>
<text text-anchor="middle" x="73" y="-710.3" font-family="Times,serif" font-size="14.00">abriendo_ocupada</text>
</g>
<!-- abriendo&#45;&gt;abriendo_ocupada -->
<g id="edge13" class="edge">
<title>abriendo&#45;&gt;abriendo_ocupada</title>
<path fill="none" stroke="black" d="M218.86,-546.06C194.53,-550.7 163.87,-559.49 141,-576 104.44,-602.39 86.46,-654.05 78.5,-685.84"/>
<polygon fill="black" stroke="black" points="75.04,-685.26 76.17,-695.8 81.86,-686.86 75.04,-685.26"/>
<text text-anchor="middle" x="145.5" y="-623.3" font-family="Times,serif" font-size="14.00">obstaculo</text>
</g>
<!-- abriendo&#45;&gt;abierta -->
<g id="edge11" class="edge">
<title>abriendo&#45;&gt;abierta</title>
<path fill="none" stroke="black" d="M286.32,-521.8C307,-508.78 335.58,-490.78 358.11,-476.6"/>
<polygon fill="black" stroke="black" points="360.12,-479.47 366.72,-471.18 356.39,-473.54 360.12,-479.47"/>
<text text-anchor="middle" x="346" y="-492.8" font-family="Times,serif" font-size="14.00">fca</text>
</g>
<!-- abriendo_ocupada&#45;&gt;abriendo_pulso -->
<g id="edge16" class="edge">
<title>abriendo_ocupada&#45;&gt;abriendo_pulso</title>
<path fill="none" stroke="black" d="M110.32,-695.84C131.36,-686.18 158.14,-673.9 182,-663 191.72,-658.56 202.13,-653.82 212.06,-649.31"/>
<polygon fill="black" stroke="black" points="213.74,-652.39 221.39,-645.06 210.84,-646.02 213.74,-652.39"/>
<text text-anchor="middle" x="192.5" y="-666.8" font-family="Times,serif" font-size="14.00">fcc</text>
</g>
<!-- abriendo_ocupada&#45;&gt;abriendo_pulso -->
<g id="edge17" class="edge">
<title>abriendo_ocupada&#45;&gt;abriendo_pulso</title>
<path fill="none" stroke="black" d="M146.15,-696.4C169.75,-690.38 192.52,-683.67 203,-678 215.3,-671.34 227.13,-661.48 236.72,-652.27"/>
<polygon fill="black" stroke="black" points="239.3,-654.64 243.9,-645.1 234.35,-649.69 239.3,-654.64"/>
<text text-anchor="middle" x="237" y="-666.8" font-family="Times,serif" font-size="14.00">trcf</text>
</g>
<!-- abierta_ocupada -->
<g id="node9" class="node">
<title>abierta_ocupada</title>
<polygon fill="none" stroke="black" points="275,-384 141,-384 141,-348 275,-348 275,-384"/>
<text text-anchor="middle" x="208" y="-362.3" font-family="Times,serif" font-size="14.00">abierta_ocupada</text>
</g>
<!-- abriendo_ocupada&#45;&gt;abierta_ocupada -->
<g id="edge15" class="edge">
<title>abriendo_ocupada&#45;&gt;abierta_ocupada</title>
<path fill="none" stroke="black" d="M69.78,-695.81C66.86,-678.69 63,-651.63 63,-628 63,-628 63,-628 63,-452 63,-416.26 96.19,-395.26 130.82,-383.08"/>
<polygon fill="black" stroke="black" points="132.18,-386.32 140.59,-379.87 130,-379.66 132.18,-386.32"/>
<text text-anchor="middle" x="74" y="-536.3" font-family="Times,serif" font-size="14.00">fca</text>
</g>
<!-- abierta_libre -->
<g id="node8" class="node">
<title>abierta_libre</title>
<polygon fill="none" stroke="black" points="412.5,-297 305.5,-297 305.5,-261 412.5,-261 412.5,-297"/>
<text text-anchor="middle" x="359" y="-275.3" font-family="Times,serif" font-size="14.00">abierta_libre</text>
</g>
<!-- abierta_libre&#45;&gt;abierta_ocupada -->
<g id="edge22" class="edge">
<title>abierta_libre&#45;&gt;abierta_ocupada</title>
<path fill="none" stroke="black" d="M355.47,-297.11C352.37,-308 346.78,-321.59 337,-330 322.32,-342.63 303.5,-350.75 284.81,-355.95"/>
<polygon fill="black" stroke="black" points="283.9,-352.57 275.06,-358.41 285.62,-359.36 283.9,-352.57"/>
<text text-anchor="middle" x="382.5" y="-318.8" font-family="Times,serif" font-size="14.00">obstaculo</text>
</g>
<!-- abierta_libre&#45;&gt;cerrando_pulso -->
<g id="edge23" class="edge">
<title>abierta_libre&#45;&gt;cerrando_pulso</title>
<path fill="none" stroke="black" d="M380.8,-260.78C395.4,-249.99 415.47,-236.55 435,-228 456.54,-218.57 481.08,-211.37 503.59,-206.02"/>
<polygon fill="black" stroke="black" points="504.46,-209.41 513.43,-203.77 502.9,-202.59 504.46,-209.41"/>
<text text-anchor="middle" x="449" y="-231.8" font-family="Times,serif" font-size="14.00">tale</text>
</g>
<!-- abierta_ocupada&#45;&gt;abierta_libre -->
<g id="edge21" class="edge">
<title>abierta_ocupada&#45;&gt;abierta_libre</title>
<path fill="none" stroke="black" d="M203.48,-347.92C201.75,-337.32 201.68,-324.04 209,-315 220.12,-301.28 259.69,-292.4 295.4,-287.02"/>
<polygon fill="black" stroke="black" points="295.94,-290.47 305.34,-285.59 294.95,-283.55 295.94,-290.47"/>
<text text-anchor="middle" x="273" y="-318.8" font-family="Times,serif" font-size="14.00">auto &amp; !obstaculo</text>
</g>
<!-- abierta_ocupada&#45;&gt;abierta -->
<g id="edge20" class="edge">
<title>abierta_ocupada&#45;&gt;abierta</title>
<path fill="none" stroke="black" d="M188.24,-384.25C178.98,-394.4 171.63,-407.14 180,-417 201.34,-442.12 293.61,-449.25 349.79,-451.25"/>
<polygon fill="black" stroke="black" points="349.73,-454.75 359.83,-451.56 349.95,-447.75 349.73,-454.75"/>
<text text-anchor="middle" x="247" y="-405.8" font-family="Times,serif" font-size="14.00">!auto &amp; !obstaculo</text>
</g>
<!-- abierta&#45;&gt;abierta_ocupada -->
<g id="edge18" class="edge">
<title>abierta&#45;&gt;abierta_ocupada</title>
<path fill="none" stroke="black" d="M368.17,-434.95C346.41,-420.59 318.69,-402.33 318,-402 306.4,-396.47 293.7,-391.51 281.19,-387.18"/>
<polygon fill="black" stroke="black" points="282.27,-383.86 271.68,-384 280.05,-390.5 282.27,-383.86"/>
<text text-anchor="middle" x="400" y="-405.8" font-family="Times,serif" font-size="14.00">auto &amp; obstaculo</text>
</g>
<!-- abierta&#45;&gt;cerrando_pulso -->
<g id="edge19" class="edge">
<title>abierta&#45;&gt;cerrando_pulso</title>
<path fill="none" stroke="black" d="M428.02,-442.24C440.92,-436.84 454.53,-428.78 463,-417 489.76,-379.81 459.68,-357 478,-315 494.69,-276.74 526.64,-240.47 549.53,-217.57"/>
<polygon fill="black" stroke="black" points="552.22,-219.84 556.91,-210.34 547.32,-214.84 552.22,-219.84"/>
<text text-anchor="middle" x="520" y="-318.8" font-family="Times,serif" font-size="14.00">auto &amp; tase</text>
</g>
<!-- cerrando_pulso&#45;&gt;cerrando_pulso -->
<g id="edge25" class="edge">
<title>cerrando_pulso&#45;&gt;cerrando_pulso</title>
<path fill="none" stroke="black" d="M638.78,-199.32C649.26,-198.3 656.5,-195.86 656.5,-192 656.5,-189.59 653.67,-187.73 648.99,-186.43"/>
<polygon fill="black" stroke="black" points="649.23,-182.92 638.78,-184.68 648.04,-189.82 649.23,-182.92"/>
<text text-anchor="middle" x="669.5" y="-188.3" font-family="Times,serif" font-size="14.00">trsf</text>
</g>
<!-- cerrando -->
<g id="node12" class="node">
<title>cerrando</title>
<polygon fill="none" stroke="black" points="691,-123 611,-123 611,-87 691,-87 691,-123"/>
<text text-anchor="middle" x="651" y="-101.3" font-family="Times,serif" font-size="14.00">cerrando</text>
</g>
<!-- cerrando_pulso&#45;&gt;cerrando -->
<g id="edge24" class="edge">
<title>cerrando_pulso&#45;&gt;cerrando</title>
<path fill="none" stroke="black" d="M582.63,-173.57C587.09,-163.35 593.66,-150.6 602,-141 605.64,-136.81 609.88,-132.85 614.32,-129.2"/>
<polygon fill="black" stroke="black" points="616.6,-131.86 622.42,-123.01 612.35,-126.3 616.6,-131.86"/>
<text text-anchor="middle" x="640" y="-144.8" font-family="Times,serif" font-size="14.00">!fca &amp; !fcc</text>
</g>
<!-- cerrando&#45;&gt;cerrando_pulso -->
<g id="edge27" class="edge">
<title>cerrando&#45;&gt;cerrando_pulso</title>
<path fill="none" stroke="black" d="M670,-123.29C678.59,-133.22 685.34,-145.72 678,-156 670.57,-166.4 659.86,-173.74 648.13,-178.92"/>
<polygon fill="black" stroke="black" points="646.62,-175.75 638.56,-182.62 649.15,-182.28 646.62,-175.75"/>
<text text-anchor="middle" x="693" y="-144.8" font-family="Times,serif" font-size="14.00">fca</text>
</g>
<!-- cerrando&#45;&gt;cerrando_pulso -->
<g id="edge28" class="edge">
<title>cerrando&#45;&gt;cerrando_pulso</title>
<path fill="none" stroke="black" d="M610.89,-111.67C593.11,-116.4 573.8,-125.08 563,-141 558.35,-147.86 558.75,-156.28 561.16,-164.25"/>
<polygon fill="black" stroke="black" points="557.93,-165.61 564.89,-173.6 564.43,-163.01 557.93,-165.61"/>
<text text-anchor="middle" x="576" y="-144.8" font-family="Times,serif" font-size="14.00">trcf</text>
</g>
<!-- cerrando&#45;&gt;cerrada -->
<g id="edge26" class="edge">
<title>cerrando&#45;&gt;cerrada</title>
<path fill="none" stroke="black" d="M675.69,-86.8C694.21,-73.9 719.75,-56.1 740.02,-41.98"/>
<polygon fill="black" stroke="black" points="742.14,-44.76 748.35,-36.18 738.14,-39.02 742.14,-44.76"/>
<text text-anchor="middle" x="730.5" y="-57.8" font-family="Times,serif" font-size="14.00">fcc</text>
</g>
<!-- toggle=1 -->
<g id="node14" class="node">
<title>toggle=1</title>
<polygon fill="none" stroke="green" points="808.5,-645 725.5,-645 725.5,-609 808.5,-609 808.5,-645"/>
<text text-anchor="middle" x="767" y="-623.3" font-family="Times,serif" font-size="14.00">toggle=1</text>
</g>
<!-- toggle=0 -->
<g id="node15" class="node">
<title>toggle=0</title>
<polygon fill="none" stroke="black" points="808.5,-732 725.5,-732 725.5,-696 808.5,-696 808.5,-732"/>
<text text-anchor="middle" x="767" y="-710.3" font-family="Times,serif" font-size="14.00">toggle=0</text>
</g>
<!-- toggle=0&#45;&gt;toggle=1 -->
<g id="edge29" class="edge">
<title>toggle=0&#45;&gt;toggle=1</title>
<path fill="none" stroke="black" d="M767,-695.8C767,-684.16 767,-668.55 767,-655.24"/>
<polygon fill="black" stroke="black" points="770.5,-655.18 767,-645.18 763.5,-655.18 770.5,-655.18"/>
</g>
</g>
</svg>
