<?xml version="1.0" encoding="UTF-8" standalone="no"?>
<!DOCTYPE svg PUBLIC "-//W3C//DTD SVG 1.1//EN"
 "http://www.w3.org/Graphics/SVG/1.1/DTD/svg11.dtd">
<!-- Generated by graphviz version 2.43.0 (0)
 -->
<!-- Title: G Pages: 1 -->
<svg width="1094pt" height="465pt"
 viewBox="0.00 0.00 1094.00 465.00" xmlns="http://www.w3.org/2000/svg" xmlns:xlink="http://www.w3.org/1999/xlink">
<g id="graph0" class="graph" transform="scale(1 1) rotate(0) translate(4 461)">
<title>G</title>
<polygon fill="white" stroke="transparent" points="-4,4 -4,-461 1090,-461 1090,4 -4,4"/>
<!-- inicial -->
<g id="node1" class="node">
<title>inicial</title>
<polygon fill="none" stroke="blue" points="366.95,-297 277.15,-297 254.05,-261 343.85,-261 366.95,-297"/>
<text text-anchor="middle" x="310.5" y="-275.3" font-family="Times,serif" font-size="14.00">inicial</text>
</g>
<!-- abierta_manual -->
<g id="node7" class="node">
<title>abierta_manual</title>
<polygon fill="none" stroke="black" points="278,-210 151,-210 151,-174 278,-174 278,-210"/>
<text text-anchor="middle" x="214.5" y="-188.3" font-family="Times,serif" font-size="14.00">abierta_manual</text>
</g>
<!-- inicial&#45;&gt;abierta_manual -->
<g id="edge8" class="edge">
<title>inicial&#45;&gt;abierta_manual</title>
<path fill="none" stroke="black" d="M291.07,-260.8C276.89,-248.24 257.47,-231.05 241.74,-217.12"/>
<polygon fill="black" stroke="black" points="243.71,-214.18 233.9,-210.18 239.06,-219.43 243.71,-214.18"/>
<text text-anchor="middle" x="279.5" y="-231.8" font-family="Times,serif" font-size="14.00">fca</text>
</g>
<!-- cerrando_automatico -->
<g id="node11" class="node">
<title>cerrando_automatico</title>
<polygon fill="none" stroke="green" points="653,-210 486,-210 486,-174 653,-174 653,-210"/>
<text text-anchor="middle" x="569.5" y="-188.3" font-family="Times,serif" font-size="14.00">cerrando_automatico</text>
</g>
<!-- inicial&#45;&gt;cerrando_automatico -->
<g id="edge9" class="edge">
<title>inicial&#45;&gt;cerrando_automatico</title>
<path fill="none" stroke="black" d="M347.06,-266C388.76,-252.32 457.64,-229.71 507.72,-213.28"/>
<polygon fill="black" stroke="black" points="509.06,-216.52 517.47,-210.08 506.88,-209.87 509.06,-216.52"/>
<text text-anchor="middle" x="497.5" y="-231.8" font-family="Times,serif" font-size="14.00">ni fcc ni fca</text>
</g>
<!-- cerrada -->
<g id="node12" class="node">
<title>cerrada</title>
<polygon fill="none" stroke="black" points="504,-123 433,-123 433,-87 504,-87 504,-123"/>
<text text-anchor="middle" x="468.5" y="-101.3" font-family="Times,serif" font-size="14.00">cerrada</text>
</g>
<!-- inicial&#45;&gt;cerrada -->
<g id="edge7" class="edge">
<title>inicial&#45;&gt;cerrada</title>
<path fill="none" stroke="black" d="M326.23,-260.88C354.38,-230.23 413.48,-165.89 445.95,-130.55"/>
<polygon fill="black" stroke="black" points="448.65,-132.78 452.84,-123.05 443.49,-128.05 448.65,-132.78"/>
<text text-anchor="middle" x="416" y="-188.3" font-family="Times,serif" font-size="14.00">fcc</text>
</g>
<!-- boton_cerrar_automatico -->
<g id="node2" class="node">
<title>boton_cerrar_automatico</title>
<polygon fill="none" stroke="blue" points="754.24,-297 460.36,-297 384.76,-261 678.64,-261 754.24,-297"/>
<text text-anchor="middle" x="569.5" y="-275.3" font-family="Times,serif" font-size="14.00">boton_cerrar_automatico</text>
</g>
<!-- boton_cerrar_automatico&#45;&gt;cerrando_automatico -->
<g id="edge1" class="edge">
<title>boton_cerrar_automatico&#45;&gt;cerrando_automatico</title>
<path fill="none" stroke="black" d="M569.5,-260.8C569.5,-249.16 569.5,-233.55 569.5,-220.24"/>
<polygon fill="black" stroke="black" points="573,-220.18 569.5,-210.18 566,-220.18 573,-220.18"/>
</g>
<!-- boton_abrir_automatico -->
<g id="node3" class="node">
<title>boton_abrir_automatico</title>
<polygon fill="none" stroke="blue" points="983.59,-457 703.47,-457 631.41,-421 911.53,-421 983.59,-457"/>
<text text-anchor="middle" x="807.5" y="-435.3" font-family="Times,serif" font-size="14.00">boton_abrir_automatico</text>
</g>
<!-- abriendo_automatico -->
<g id="node5" class="node">
<title>abriendo_automatico</title>
<polygon fill="none" stroke="green" points="821.5,-384 655.5,-384 655.5,-348 821.5,-348 821.5,-384"/>
<text text-anchor="middle" x="738.5" y="-362.3" font-family="Times,serif" font-size="14.00">abriendo_automatico</text>
</g>
<!-- boton_abrir_automatico&#45;&gt;abriendo_automatico -->
<g id="edge2" class="edge">
<title>boton_abrir_automatico&#45;&gt;abriendo_automatico</title>
<path fill="none" stroke="black" d="M790.8,-420.81C782.24,-412 771.66,-401.13 762.27,-391.46"/>
<polygon fill="black" stroke="black" points="764.53,-388.76 755.05,-384.03 759.51,-393.64 764.53,-388.76"/>
</g>
<!-- abierta_sin_ocupar -->
<g id="node10" class="node">
<title>abierta_sin_ocupar</title>
<polygon fill="none" stroke="black" points="923,-297 772,-297 772,-261 923,-261 923,-297"/>
<text text-anchor="middle" x="847.5" y="-275.3" font-family="Times,serif" font-size="14.00">abierta_sin_ocupar</text>
</g>
<!-- boton_abrir_automatico&#45;&gt;abierta_sin_ocupar -->
<g id="edge3" class="edge">
<title>boton_abrir_automatico&#45;&gt;abierta_sin_ocupar</title>
<path fill="none" stroke="black" d="M836.37,-420.97C849.04,-411.79 862.58,-399.2 869.5,-384 880.84,-359.09 871.66,-328.14 861.93,-306.51"/>
<polygon fill="black" stroke="black" points="864.98,-304.78 857.49,-297.28 858.67,-307.81 864.98,-304.78"/>
<text text-anchor="middle" x="886.5" y="-362.3" font-family="Times,serif" font-size="14.00">fca</text>
</g>
<!-- boton_abrir_manual -->
<g id="node4" class="node">
<title>boton_abrir_manual</title>
<polygon fill="none" stroke="blue" points="315.13,-384 75.51,-384 13.87,-348 253.49,-348 315.13,-384"/>
<text text-anchor="middle" x="164.5" y="-362.3" font-family="Times,serif" font-size="14.00">boton_abrir_manual</text>
</g>
<!-- abriendo_manual -->
<g id="node6" class="node">
<title>abriendo_manual</title>
<polygon fill="none" stroke="green" points="139,-297 0,-297 0,-261 139,-261 139,-297"/>
<text text-anchor="middle" x="69.5" y="-275.3" font-family="Times,serif" font-size="14.00">abriendo_manual</text>
</g>
<!-- boton_abrir_manual&#45;&gt;abriendo_manual -->
<g id="edge4" class="edge">
<title>boton_abrir_manual&#45;&gt;abriendo_manual</title>
<path fill="none" stroke="black" d="M145.28,-347.8C131.24,-335.24 112.03,-318.05 96.46,-304.12"/>
<polygon fill="black" stroke="black" points="98.48,-301.24 88.7,-297.18 93.81,-306.45 98.48,-301.24"/>
<text text-anchor="middle" x="145" y="-318.8" font-family="Times,serif" font-size="14.00">no fca</text>
</g>
<!-- boton_abrir_manual&#45;&gt;abierta_manual -->
<g id="edge6" class="edge">
<title>boton_abrir_manual&#45;&gt;abierta_manual</title>
<path fill="none" stroke="black" d="M170.35,-347.75C174.92,-334.04 181.36,-314.37 186.5,-297 194.22,-270.93 202.21,-240.91 207.66,-219.85"/>
<polygon fill="black" stroke="black" points="211.09,-220.56 210.2,-210.01 204.32,-218.82 211.09,-220.56"/>
<text text-anchor="middle" x="207.5" y="-275.3" font-family="Times,serif" font-size="14.00">fca</text>
</g>
<!-- abriendo_automatico&#45;&gt;abriendo_automatico -->
<g id="edge11" class="edge">
<title>abriendo_automatico&#45;&gt;abriendo_automatico</title>
<path fill="none" stroke="black" d="M821.71,-371.92C832.42,-370.89 839.5,-368.92 839.5,-366 839.5,-364.13 836.6,-362.65 831.69,-361.56"/>
<polygon fill="black" stroke="black" points="832.11,-358.08 821.71,-360.08 831.09,-365.01 832.11,-358.08"/>
<text text-anchor="middle" x="850" y="-362.3" font-family="Times,serif" font-size="14.00">fcc</text>
</g>
<!-- abriendo_automatico&#45;&gt;abierta_sin_ocupar -->
<g id="edge10" class="edge">
<title>abriendo_automatico&#45;&gt;abierta_sin_ocupar</title>
<path fill="none" stroke="black" d="M760.56,-347.8C776.96,-335.01 799.52,-317.42 817.55,-303.36"/>
<polygon fill="black" stroke="black" points="819.74,-306.08 825.48,-297.18 815.44,-300.56 819.74,-306.08"/>
<text text-anchor="middle" x="811.5" y="-318.8" font-family="Times,serif" font-size="14.00">fca</text>
</g>
<!-- abriendo_manual&#45;&gt;abriendo_manual -->
<g id="edge5" class="edge">
<title>abriendo_manual&#45;&gt;abriendo_manual</title>
<path fill="none" stroke="black" d="M139.17,-286.18C149.79,-285.09 157,-282.69 157,-279 157,-276.64 154.04,-274.8 149.12,-273.5"/>
<polygon fill="black" stroke="black" points="149.62,-270.04 139.17,-271.82 148.45,-276.94 149.62,-270.04"/>
<text text-anchor="middle" x="167.5" y="-275.3" font-family="Times,serif" font-size="14.00">fcc</text>
</g>
<!-- abriendo_manual&#45;&gt;abierta_manual -->
<g id="edge19" class="edge">
<title>abriendo_manual&#45;&gt;abierta_manual</title>
<path fill="none" stroke="black" d="M98.84,-260.8C121.15,-247.72 152.03,-229.62 176.27,-215.41"/>
<polygon fill="black" stroke="black" points="178.34,-218.25 185.2,-210.18 174.8,-212.21 178.34,-218.25"/>
<text text-anchor="middle" x="162.5" y="-231.8" font-family="Times,serif" font-size="14.00">fca</text>
</g>
<!-- abierta_libre -->
<g id="node8" class="node">
<title>abierta_libre</title>
<polygon fill="none" stroke="black" points="656,-36 549,-36 549,0 656,0 656,-36"/>
<text text-anchor="middle" x="602.5" y="-14.3" font-family="Times,serif" font-size="14.00">abierta_libre</text>
</g>
<!-- abierta_ocupada -->
<g id="node9" class="node">
<title>abierta_ocupada</title>
<polygon fill="none" stroke="black" points="758.5,-123 624.5,-123 624.5,-87 758.5,-87 758.5,-123"/>
<text text-anchor="middle" x="691.5" y="-101.3" font-family="Times,serif" font-size="14.00">abierta_ocupada</text>
</g>
<!-- abierta_libre&#45;&gt;abierta_ocupada -->
<g id="edge15" class="edge">
<title>abierta_libre&#45;&gt;abierta_ocupada</title>
<path fill="none" stroke="black" d="M596.48,-36.18C593.99,-46.55 592.98,-59.55 599.5,-69 603.77,-75.19 609.29,-80.29 615.5,-84.48"/>
<polygon fill="black" stroke="black" points="613.95,-87.63 624.35,-89.66 617.49,-81.59 613.95,-87.63"/>
<text text-anchor="middle" x="634" y="-57.8" font-family="Times,serif" font-size="14.00">obstaculo</text>
</g>
<!-- abierta_libre&#45;&gt;cerrando_automatico -->
<g id="edge16" class="edge">
<title>abierta_libre&#45;&gt;cerrando_automatico</title>
<path fill="none" stroke="black" d="M596.51,-36.31C594.72,-41.91 592.88,-48.17 591.5,-54 582.61,-91.67 576.21,-136.02 572.68,-163.83"/>
<polygon fill="black" stroke="black" points="569.18,-163.62 571.43,-173.97 576.13,-164.48 569.18,-163.62"/>
<text text-anchor="middle" x="593.5" y="-101.3" font-family="Times,serif" font-size="14.00">t1</text>
</g>
<!-- abierta_ocupada&#45;&gt;abierta_libre -->
<g id="edge14" class="edge">
<title>abierta_ocupada&#45;&gt;abierta_libre</title>
<path fill="none" stroke="black" d="M688.23,-86.57C685.52,-76.1 680.72,-63.09 672.5,-54 668.19,-49.24 663.09,-45.04 657.64,-41.36"/>
<polygon fill="black" stroke="black" points="659.2,-38.22 648.83,-36.01 655.56,-44.2 659.2,-38.22"/>
<text text-anchor="middle" x="728" y="-57.8" font-family="Times,serif" font-size="14.00">no obstaculo</text>
</g>
<!-- abierta_sin_ocupar&#45;&gt;abierta_ocupada -->
<g id="edge12" class="edge">
<title>abierta_sin_ocupar&#45;&gt;abierta_ocupada</title>
<path fill="none" stroke="black" d="M831.97,-260.88C804.17,-230.23 745.82,-165.89 713.76,-130.55"/>
<polygon fill="black" stroke="black" points="716.28,-128.11 706.97,-123.05 711.09,-132.81 716.28,-128.11"/>
<text text-anchor="middle" x="820" y="-188.3" font-family="Times,serif" font-size="14.00">obstaculo</text>
</g>
<!-- abierta_sin_ocupar&#45;&gt;cerrando_automatico -->
<g id="edge13" class="edge">
<title>abierta_sin_ocupar&#45;&gt;cerrando_automatico</title>
<path fill="none" stroke="black" d="M791.58,-260.9C746.33,-247.07 682.54,-227.56 634.93,-213.01"/>
<polygon fill="black" stroke="black" points="635.92,-209.65 625.33,-210.07 633.87,-216.34 635.92,-209.65"/>
<text text-anchor="middle" x="733.5" y="-231.8" font-family="Times,serif" font-size="14.00">t2</text>
</g>
<!-- cerrando_automatico&#45;&gt;abierta_ocupada -->
<g id="edge18" class="edge">
<title>cerrando_automatico&#45;&gt;abierta_ocupada</title>
<path fill="none" stroke="black" d="M594.19,-173.8C612.71,-160.9 638.25,-143.1 658.52,-128.98"/>
<polygon fill="black" stroke="black" points="660.64,-131.76 666.85,-123.18 656.64,-126.02 660.64,-131.76"/>
<text text-anchor="middle" x="649.5" y="-144.8" font-family="Times,serif" font-size="14.00">fca</text>
</g>
<!-- cerrando_automatico&#45;&gt;cerrada -->
<g id="edge17" class="edge">
<title>cerrando_automatico&#45;&gt;cerrada</title>
<path fill="none" stroke="black" d="M549.06,-173.8C534,-161.13 513.34,-143.73 496.71,-129.74"/>
<polygon fill="black" stroke="black" points="498.81,-126.94 488.91,-123.18 494.31,-132.29 498.81,-126.94"/>
<text text-anchor="middle" x="536" y="-144.8" font-family="Times,serif" font-size="14.00">fcc</text>
</g>
<!-- toggle=1 -->
<g id="node13" class="node">
<title>toggle=1</title>
<polygon fill="none" stroke="green" points="1086,-384 1003,-384 1003,-348 1086,-348 1086,-384"/>
<text text-anchor="middle" x="1044.5" y="-362.3" font-family="Times,serif" font-size="14.00">toggle=1</text>
</g>
<!-- toggle=0 -->
<g id="node14" class="node">
<title>toggle=0</title>
<polygon fill="none" stroke="black" points="1086,-457 1003,-457 1003,-421 1086,-421 1086,-457"/>
<text text-anchor="middle" x="1044.5" y="-435.3" font-family="Times,serif" font-size="14.00">toggle=0</text>
</g>
<!-- toggle=0&#45;&gt;toggle=1 -->
<g id="edge20" class="edge">
<title>toggle=0&#45;&gt;toggle=1</title>
<path fill="none" stroke="black" d="M1044.5,-420.81C1044.5,-412.79 1044.5,-403.05 1044.5,-394.07"/>
<polygon fill="black" stroke="black" points="1048,-394.03 1044.5,-384.03 1041,-394.03 1048,-394.03"/>
</g>
</g>
</svg>
